<svg width="141" height="38" viewBox="0 0 141 38" fill="none" xmlns="http://www.w3.org/2000/svg">
<path d="M109.871 1.39696V6.41245H106.592C106.008 6.41245 105.449 6.64899 105.036 7.07012C104.623 7.49124 104.391 8.06251 104.391 8.65843V10.286H109.871V16.6631H104.391V35.6509H95.3922V16.6631H91.4307V10.286H95.3922C95.3922 4.671 96.9534 0 103.286 0C108.572 0 109.871 1.39696 109.871 1.39696Z" fill="#F50714"/>
<g opacity="0.5">
<path d="M109.871 1.39696V6.41245H106.592C106.008 6.41245 105.449 6.64899 105.036 7.07012C104.623 7.49124 104.391 8.06251 104.391 8.65843V10.286H109.871V16.6631H104.391V35.6509H95.3922V16.6631H91.4307V10.286H95.3922C95.3922 4.671 96.9534 0 103.286 0C108.572 0 109.871 1.39696 109.871 1.39696Z" fill="#FB0618"/>
</g>
<path d="M139.258 30.6924C138.618 30.6924 137.612 30.3371 137.612 28.1101C137.612 25.8831 138.029 19.3513 137.784 16.8395C137.54 14.3276 133.629 9.4939 126.426 9.4939C119.222 9.4939 113.439 10.3077 111.586 17.8214H120.73C120.73 17.8214 120.996 15.5619 124.886 15.5619C128.775 15.5619 128.624 17.8214 128.624 17.8214V20.3441C128.624 20.3441 122.703 20.5014 119.172 21.033C115.64 21.5647 110.858 23.6859 110.858 29.1001C110.858 34.5144 114.392 36.5813 119.743 36.5813C125.093 36.5813 128.159 33.9285 128.627 33.4511C129.248 33.7223 129.458 36.8472 135.69 36.8472C140.734 36.8472 141 35.6537 141 35.6537V30.6924H139.258ZM127.275 29.96C125.895 31.3705 120.21 32.6292 120.21 28.4627C120.21 24.2962 128.555 24.855 128.555 24.855C128.555 24.855 129.267 28.0667 127.275 29.96Z" fill="#F50714"/>
<g opacity="0.5">
<path d="M139.258 30.6924C138.618 30.6924 137.612 30.3371 137.612 28.1101C137.612 25.8831 138.029 19.3513 137.784 16.8395C137.54 14.3276 133.629 9.4939 126.426 9.4939C119.222 9.4939 113.439 10.3077 111.586 17.8214H120.73C120.73 17.8214 120.996 15.5619 124.886 15.5619C128.775 15.5619 128.624 17.8214 128.624 17.8214V20.3441C128.624 20.3441 122.703 20.5014 119.172 21.033C115.64 21.5647 110.858 23.6859 110.858 29.1001C110.858 34.5144 114.392 36.5813 119.743 36.5813C125.093 36.5813 128.159 33.9285 128.627 33.4511C129.248 33.7223 129.458 36.8472 135.69 36.8472C140.734 36.8472 141 35.6537 141 35.6537V30.6924H139.258ZM127.275 29.96C125.895 31.3705 120.21 32.6292 120.21 28.4627C120.21 24.2962 128.555 24.855 128.555 24.855C128.555 24.855 129.267 28.0667 127.275 29.96Z" fill="#FB0618"/>
</g>
<path d="M18.4428 1.39696V6.41245H15.161C14.5779 6.41245 14.0187 6.64908 13.6064 7.07028C13.1942 7.49149 12.9625 8.06276 12.9625 8.65843V10.286H18.4428V16.6631H12.9625V35.6509H3.96151V16.6631H0V10.286H3.96151C3.96151 4.671 5.52275 0 11.8606 0C17.1444 0 18.4428 1.39696 18.4428 1.39696Z" fill="#13B6A5"/>
<path d="M39.3764 10.5355C38.1237 10.227 36.8389 10.0749 35.5503 10.0825C28.3469 10.0825 22.009 10.3213 20.1504 17.8269H29.2948C29.2948 17.8269 29.5603 15.5673 33.4501 15.5673C37.3399 15.5673 37.1886 17.8269 37.1886 17.8269V20.3441C37.1886 20.3441 31.2676 20.5014 27.7362 21.0331C24.2048 21.5647 19.4229 23.6859 19.4229 29.1002C19.4229 34.5144 22.9569 36.5814 28.307 36.5814C33.6572 36.5814 36.7239 33.9285 37.1912 33.4511C37.5709 33.6139 37.7966 34.8345 39.3154 35.7676M35.8451 29.9601C34.4644 31.3706 28.7797 32.6292 28.7797 28.4627C28.7797 24.2963 37.1249 24.8551 37.1249 24.8551C37.1249 24.8551 37.8364 28.0667 35.8451 29.9601Z" fill="#13B6A5"/>
<path d="M58.7272 7.42151C52.6203 7.42151 50.0023 10.0744 50.0023 10.0744V7.92604L38.7656 7.89078V36.8906H51.4308V19.8667C51.4308 19.4435 51.8184 17.7617 53.7806 17.7617C55.0152 17.7617 55.602 18.6107 55.602 19.7609V36.8906H68.469V17.3603C68.469 14.919 66.9635 7.42151 58.7272 7.42151ZM66.4776 35.6645H56.7809V20.2735C56.7809 18.8928 56.7809 16.4163 53.6983 16.4163C50.374 16.4163 49.8456 19.0095 49.8456 20.2139C49.8456 21.4182 49.7155 35.6753 49.7155 35.6753H40.0932V9.65936H47.6604C48.8287 9.65936 48.7597 12.1603 48.6853 13.1857C48.6839 13.2074 48.6895 13.2291 48.7012 13.2473C48.7129 13.2656 48.7301 13.2795 48.7502 13.2868C48.7703 13.2942 48.7922 13.2946 48.8126 13.2881C48.833 13.2816 48.8508 13.2685 48.8632 13.2508C49.5536 12.2444 52.0202 9.42608 57.997 9.42608C66.1006 9.42608 66.4935 15.9714 66.4935 17.5284L66.4776 35.6645Z" fill="#0E0D10"/>
<path d="M90.4696 7.71173V10.1015C90.4696 10.1015 89.0411 9.4125 85.4035 9.4125C81.766 9.4125 71.1586 10.9315 71.1586 22.5412C71.1586 34.1509 78.6913 36.1229 85.5841 36.1229C91.2635 36.1229 93.3425 34.4249 93.3425 34.4249V36.5488C93.3425 36.5488 90.3979 38 85.377 38C80.3561 38 69.377 36.1934 69.377 22.5385C69.377 8.88355 80.6216 7.82024 82.9528 7.52728C87.379 6.97121 90.4696 7.71173 90.4696 7.71173Z" fill="#0E0D10"/>
<path d="M89.9762 20.184C89.8195 17.0185 87.3608 15.7979 85.4624 15.7979C80.6326 15.7979 80.46 19.2997 80.5981 22.7582C80.6592 24.3234 80.0087 29.7213 85.6429 29.7213C91.2772 29.7213 90.1328 23.3658 89.9762 20.184ZM86.1607 27.7791C82.8603 27.7791 82.4089 26.2981 82.2921 23.9002C82.2656 20.6913 81.7159 17.2057 85.5872 17.2057C86.5483 17.2057 88.8344 17.3901 88.8344 20.5231C88.8344 23.6561 89.4611 27.7873 86.1607 27.7873V27.7791Z" fill="#0E0D10"/>
</svg>
