<svg width="8" height="8" viewBox="0 0 8 8" fill="none" xmlns="http://www.w3.org/2000/svg">
<path fill-rule="evenodd" clip-rule="evenodd" d="M5.81688 3.05436L4.96134 3.25776C4.77578 2.77076 4.46586 2.52563 4.03093 2.52563C3.69757 2.52563 3.43518 2.65406 3.24636 2.91288C3.05559 3.16975 2.96118 3.51463 2.96118 3.94296C2.96118 4.28001 3.00024 4.56621 3.08033 4.79831C3.16041 5.0304 3.27826 5.20316 3.43322 5.32116C3.58818 5.43721 3.77374 5.49588 3.98926 5.49588C4.46911 5.49588 4.79661 5.19599 4.97176 4.5962L5.81688 4.88371C5.53886 5.79056 4.92228 6.24432 3.96842 6.24432C3.6279 6.24432 3.30886 6.16021 3.01457 5.99267C2.72027 5.82642 2.48523 5.57151 2.30683 5.23054C2.13038 4.88762 2.04118 4.48081 2.04118 4.00619C2.04118 3.56352 2.12322 3.17627 2.2873 2.84247C2.44942 2.51063 2.68511 2.25181 2.98983 2.06601C3.29454 1.88216 3.65134 1.78959 4.06283 1.78959C4.92553 1.78828 5.51021 2.21009 5.81688 3.05436ZM4.00033 0C4.54594 0 5.06291 0.101703 5.54928 0.30511C6.03435 0.510472 6.46211 0.797979 6.83259 1.16893C7.20371 1.53989 7.49019 1.96887 7.69529 2.45392C7.89843 2.94092 8 3.45726 8 4.00489C8 4.72268 7.81965 5.39027 7.45959 6.0044C7.09954 6.62049 6.61252 7.10749 5.99984 7.46475C5.38651 7.82202 4.71979 8 3.99967 8C3.2685 8 2.59657 7.82137 1.98714 7.46606C1.37576 7.11075 0.890698 6.62505 0.534549 6.00962C0.1784 5.39614 0 4.72659 0 4.00554C0 3.28058 0.1784 2.60973 0.534549 1.9956C0.891349 1.37951 1.37772 0.892511 1.993 0.535246C2.60633 0.178633 3.27631 0 4.00033 0ZM4.00033 0.785592C3.41174 0.785592 2.87198 0.930324 2.38366 1.21913C1.89534 1.5086 1.50663 1.89911 1.2195 2.39198C0.932368 2.88615 0.787825 3.42401 0.787825 4.00554C0.787825 4.59099 0.932368 5.12819 1.2195 5.61715C1.50663 6.10806 1.89534 6.49531 2.38561 6.78282C2.87784 7.07033 3.41434 7.21506 4.00098 7.21506C4.5824 7.21506 5.11891 7.07228 5.61439 6.78673C6.10792 6.50118 6.49858 6.11393 6.78571 5.62301C7.07284 5.13406 7.21738 4.5949 7.21738 4.00554C7.21738 3.42727 7.07284 2.89007 6.78441 2.39524C6.49532 1.90107 6.10531 1.50795 5.61113 1.21913C5.11826 0.930324 4.58175 0.785592 4.00033 0.785592Z" fill="#444444"/>
</svg>
