<svg width="19" height="18" viewBox="0 0 19 18" fill="none" xmlns="http://www.w3.org/2000/svg">
<path d="M17.2802 17.3338C17.1708 17.3342 17.0624 17.3128 16.9612 17.2709C16.8601 17.229 16.7683 17.1675 16.6912 17.0898L11.1672 11.5668C10.6146 11.866 9.98003 11.9788 9.35811 11.8882C8.73619 11.7977 8.16015 11.5087 7.71575 11.0643C7.27135 10.6199 6.98236 10.0439 6.89181 9.42194C6.80126 8.80002 6.914 8.16549 7.21323 7.61282L1.69023 2.08982C1.53389 1.9336 1.446 1.72168 1.4459 1.50067C1.44581 1.27966 1.53352 1.06766 1.68973 0.911318C1.84594 0.754972 2.05787 0.667086 2.27888 0.666992C2.49989 0.666898 2.71189 0.754605 2.86823 0.910818L17.8682 15.9108C17.9847 16.0273 18.064 16.1757 18.0962 16.3373C18.1283 16.4989 18.1118 16.6664 18.0488 16.8186C17.9857 16.9708 17.879 17.1009 17.742 17.1924C17.605 17.284 17.444 17.3328 17.2792 17.3328L17.2802 17.3338ZM8.53223 8.93382C8.53223 8.95882 8.53223 8.98082 8.53223 9.00282C8.53276 9.33418 8.66462 9.65181 8.89893 9.88612C9.13324 10.1204 9.45087 10.2523 9.78223 10.2528H9.85123L8.53123 8.93082L8.53223 8.93382ZM9.78023 14.8338C7.3915 14.7086 5.12057 13.757 3.35623 12.1418C2.6889 11.5879 2.06259 10.9863 1.48223 10.3418C1.30023 10.1418 1.12723 9.94182 0.96923 9.74182L0.86923 9.62182L0.83123 9.56682L0.79923 9.52582L0.79423 9.51882L0.78323 9.50482V9.49982C0.79257 9.49103 0.802602 9.483 0.81323 9.47582L1.34223 9.07582L0.78123 9.49482C0.67391 9.35021 0.615967 9.1749 0.615967 8.99482C0.615967 8.81473 0.67391 8.63943 0.78123 8.49482L1.44923 8.99482L0.78123 8.49482V8.48882L0.79223 8.47582V8.47082L0.82523 8.42782C0.85723 8.38682 0.90323 8.32782 0.96323 8.25482C1.06923 8.12382 1.24523 7.91282 1.47623 7.65482C2.05658 7.01032 2.68289 6.40875 3.35023 5.85482C3.5209 5.71306 3.74089 5.6449 3.9618 5.66535C4.18272 5.68579 4.38647 5.79315 4.52823 5.96382C4.66999 6.13448 4.73814 6.35447 4.7177 6.57539C4.69726 6.79631 4.5899 7.00006 4.41923 7.14182C3.81419 7.6451 3.24607 8.19117 2.71923 8.77582C2.64723 8.85582 2.58123 8.93082 2.51923 8.99982C2.57823 9.06782 2.64323 9.14082 2.71923 9.22382C3.24607 9.80846 3.81419 10.3545 4.41923 10.8578C5.89636 12.2075 7.7847 13.0208 9.78023 13.1668C10.2741 13.1648 10.7657 13.102 11.2442 12.9798C11.4041 12.9401 11.5721 12.9487 11.727 13.0043C11.882 13.06 12.0171 13.1603 12.1152 13.2926C12.2132 13.4249 12.2699 13.5832 12.2781 13.7477C12.2863 13.9122 12.2457 14.0754 12.1612 14.2168C12.1053 14.3109 12.0312 14.3929 11.9433 14.4581C11.8554 14.5234 11.7555 14.5705 11.6492 14.5968C11.0382 14.7518 10.4106 14.8314 9.78023 14.8338ZM15.6732 12.3338C15.5016 12.3343 15.334 12.2817 15.1933 12.1833C15.0527 12.0848 14.9459 11.9454 14.8876 11.7839C14.8292 11.6225 14.8222 11.447 14.8674 11.2814C14.9127 11.1158 15.0079 10.9682 15.1402 10.8588C15.7453 10.3555 16.3134 9.80946 16.8402 9.22482C16.9122 9.14482 16.9782 9.06982 17.0402 9.00082C16.9812 8.93282 16.9162 8.85882 16.8402 8.77682C16.3134 8.19217 15.7453 7.6461 15.1402 7.14282C13.6632 5.79373 11.7753 4.98079 9.78023 4.83482C9.29024 4.83716 8.80234 4.89895 8.32723 5.01882C8.22058 5.04586 8.10963 5.05151 8.00079 5.03543C7.89195 5.01936 7.78737 4.98188 7.69309 4.92516C7.59881 4.86845 7.5167 4.79362 7.4515 4.70499C7.3863 4.61637 7.33931 4.51571 7.31323 4.40882C7.26006 4.19439 7.29424 3.96762 7.40826 3.7784C7.52228 3.58918 7.7068 3.453 7.92123 3.39982C8.52909 3.24669 9.15338 3.16845 9.78023 3.16682C12.1651 3.30875 14.4307 4.25814 16.2042 5.85882C16.8716 6.41275 17.4979 7.01432 18.0782 7.65882C18.3092 7.91582 18.4852 8.12582 18.5912 8.25882C18.6502 8.33182 18.6962 8.38982 18.7292 8.43182L18.7612 8.47482V8.48082L18.7722 8.49482C18.7722 8.49482 18.7722 8.49482 18.1162 8.98782L18.7742 8.49782C18.882 8.64224 18.9402 8.81762 18.9402 8.99782C18.9402 9.17802 18.882 9.3534 18.7742 9.49782V9.50482L18.7632 9.51782V9.52282L18.7302 9.56582L18.6892 9.61682L18.5892 9.73882C18.4312 9.93282 18.2582 10.1388 18.0762 10.3388C17.4959 10.9833 16.8696 11.5849 16.2022 12.1388C16.0536 12.2635 15.8662 12.3324 15.6722 12.3338H15.6732Z" fill="#333333"/>
</svg>
