<svg width="110" height="110" viewBox="0 0 110 110" fill="none" xmlns="http://www.w3.org/2000/svg">
<path d="M54.5784 108.282C83.9727 108.282 107.801 84.4531 107.801 55.0589C107.801 25.6647 83.9727 1.83594 54.5784 1.83594C25.1842 1.83594 1.35547 25.6647 1.35547 55.0589C1.35547 84.4531 25.1842 108.282 54.5784 108.282Z" fill="#5BB0FE"/>
<path fill-rule="evenodd" clip-rule="evenodd" d="M76.6887 41.0026V41.0039C76.6887 41.4175 76.3524 41.7532 75.9381 41.7532H75.1882V70.4903H75.9381C76.353 70.4903 76.6887 70.8266 76.6887 71.2409V41.0026ZM71.6504 41.7532H75.1882V70.4903H55.2341L52.096 60.9788L71.6504 41.7532ZM75.1882 40.2521H71.3197C71.1374 40.2583 70.9576 40.3294 70.8174 40.4664L69.5093 41.7532L50.7099 60.2364C50.6104 60.3345 50.5403 60.4584 50.5074 60.5943C50.4745 60.7301 50.4802 60.8724 50.5238 61.0052L53.9787 71.4773C54.0806 71.7834 54.3685 71.9915 54.6916 71.9915H75.1882V75.6192H75.9381C76.353 75.6192 76.6887 75.9555 76.6887 76.3698V76.371C76.6887 76.7847 76.3524 77.1203 75.9381 77.1203H75.1882V82.7226C75.1882 83.1368 75.5226 83.4731 75.9363 83.4731H75.9381C76.353 83.4731 76.6874 83.1368 76.6887 82.7226C76.6906 79.8573 79.0227 77.5264 81.8873 77.5264C84.7545 77.5264 87.0873 79.8586 87.0873 82.7257C87.089 82.9216 87.1673 83.109 87.3053 83.248C87.4434 83.3869 87.6303 83.4664 87.8262 83.4695C88.022 83.4725 88.2113 83.3988 88.3536 83.2642C88.4959 83.1296 88.5799 82.9447 88.5878 82.749V35.1295C88.5878 31.4357 85.5817 28.4297 81.888 28.4297C80.1103 28.4297 78.3677 29.1645 77.103 30.445C75.8457 31.7173 75.1668 33.3838 75.1882 35.1389V40.2521Z" fill="#90CAF9"/>
<path fill-rule="evenodd" clip-rule="evenodd" d="M27.2681 76.0253C29.3646 76.0253 31.2391 76.9934 32.4693 78.5045V35.1244C32.485 33.7723 31.9576 32.4843 30.9858 31.4998C30.0007 30.5022 28.6473 29.9302 27.2681 29.9302C24.4029 29.9302 22.0695 32.2624 22.0695 35.1288V78.5045C22.6968 77.7304 23.4891 77.106 24.3885 76.6771C25.2879 76.2482 26.2717 76.0255 27.2681 76.0253ZM21.3189 83.4756C21.1199 83.4756 20.929 83.3966 20.7882 83.2558C20.6474 83.115 20.5684 82.9241 20.5684 82.7251V35.1288C20.5684 31.4351 23.5744 28.4297 27.2681 28.4297C29.0459 28.4297 30.7884 29.1639 32.0532 30.4444C33.3104 31.7167 33.9899 33.3832 33.9679 35.1383V82.7219C33.9679 82.9207 33.889 83.1113 33.7485 83.2518C33.6079 83.3923 33.4173 83.4712 33.2186 83.4712C33.0199 83.4712 32.8293 83.3923 32.6888 83.2518C32.5482 83.1113 32.4693 82.9207 32.4693 82.7219C32.4662 79.8567 30.1334 77.5258 27.2681 77.5258C24.4035 77.5258 22.0695 79.858 22.0695 82.7251C22.0695 83.1393 21.7344 83.4756 21.3189 83.4756Z" fill="#121212"/>
<path fill-rule="evenodd" clip-rule="evenodd" d="M81.8879 89.425H27.2681C23.5744 89.425 20.5684 86.4189 20.5684 82.7252C20.5684 82.5261 20.6474 82.3352 20.7882 82.1944C20.929 82.0537 21.1199 81.9746 21.3189 81.9746C21.518 81.9746 21.7089 82.0537 21.8497 82.1944C21.9904 82.3352 22.0695 82.5261 22.0695 82.7252C22.0695 85.5917 24.4029 87.9238 27.2681 87.9238H81.8879C84.7544 87.9238 87.0865 85.5917 87.0865 82.7252C87.0865 82.5261 87.1656 82.3352 87.3064 82.1944C87.4471 82.0537 87.638 81.9746 87.8371 81.9746C88.0362 81.9746 88.2271 82.0537 88.3678 82.1944C88.5086 82.3352 88.5877 82.5261 88.5877 82.7252C88.5877 86.4189 85.5816 89.425 81.8879 89.425Z" fill="#121212"/>
<path fill-rule="evenodd" clip-rule="evenodd" d="M81.8878 29.9302C80.5092 29.9302 79.1552 30.5022 78.1702 31.4992C77.1983 32.4843 76.6709 33.7723 76.6885 35.1244V78.5045C77.3159 77.7305 78.1083 77.1062 79.0078 76.6775C79.9072 76.2487 80.8911 76.0262 81.8875 76.0262C82.8839 76.0262 83.8678 76.2487 84.7672 76.6775C85.6667 77.1062 86.459 77.7305 87.0864 78.5045V35.1288C87.0864 32.2624 84.7543 29.9302 81.8878 29.9302ZM87.837 83.4756C87.7384 83.4757 87.6408 83.4564 87.5497 83.4187C87.4586 83.381 87.3758 83.3257 87.3061 83.256C87.2364 83.1863 87.1811 83.1035 87.1434 83.0124C87.1057 82.9213 87.0864 82.8237 87.0864 82.7251C87.0864 79.8586 84.7543 77.5264 81.8878 77.5264C79.0226 77.5258 76.6898 79.8567 76.6885 82.7219C76.6882 82.9209 76.609 83.1116 76.4683 83.2523C76.3276 83.393 76.1369 83.4722 75.938 83.4725H75.9367C75.8382 83.4724 75.7408 83.4529 75.6499 83.4152C75.5589 83.3774 75.4763 83.3221 75.4068 83.2524C75.3373 83.1827 75.2822 83.0999 75.2446 83.0089C75.2071 82.9179 75.1879 82.8204 75.188 82.7219V35.1383C75.166 33.3832 75.8455 31.7167 77.1028 30.4444C78.3676 29.1639 80.1101 28.4297 81.8878 28.4297C85.5815 28.4297 88.5876 31.4351 88.5876 35.1295V82.7251C88.5876 83.1393 88.2513 83.4756 87.837 83.4756Z" fill="#121212"/>
<path fill-rule="evenodd" clip-rule="evenodd" d="M44.0152 41.7531H33.2174C32.8025 41.7531 32.4688 41.4168 32.4688 41.0025C32.4688 40.5883 32.8032 40.252 33.2168 40.252H44.0164C44.2155 40.252 44.4064 40.331 44.5471 40.4718C44.6879 40.6125 44.767 40.8035 44.767 41.0025C44.767 41.2016 44.6879 41.3925 44.5471 41.5333C44.4064 41.674 44.2155 41.7531 44.0164 41.7531H44.0152ZM75.9369 41.7531H51.7157C51.5166 41.7531 51.3257 41.674 51.185 41.5333C51.0442 41.3925 50.9651 41.2016 50.9651 41.0025C50.9651 40.8035 51.0442 40.6125 51.185 40.4718C51.3257 40.331 51.5166 40.252 51.7157 40.252H75.9369C76.1359 40.252 76.3268 40.331 76.4676 40.4718C76.6084 40.6125 76.6874 40.8035 76.6874 41.0025C76.6874 41.2016 76.6084 41.3925 76.4676 41.5333C76.3268 41.674 76.1359 41.7531 75.9369 41.7531Z" fill="#121212"/>
<path fill-rule="evenodd" clip-rule="evenodd" d="M47.0049 58.6208H33.2174C33.1189 58.6209 33.0214 58.6015 32.9304 58.5638C32.8394 58.5261 32.7567 58.4708 32.6872 58.401C32.6176 58.3313 32.5625 58.2485 32.525 58.1574C32.4875 58.0663 32.4684 57.9687 32.4688 57.8702C32.4688 57.456 32.8032 57.1203 33.2168 57.1203H46.7044L64.2308 40.4582C64.3014 40.3863 64.3857 40.3293 64.4788 40.2907C64.5719 40.2521 64.6718 40.2326 64.7725 40.2334C64.8733 40.2342 64.9728 40.2553 65.0653 40.2954C65.1577 40.3356 65.2411 40.3939 65.3105 40.4669C65.38 40.54 65.4339 40.6262 65.4693 40.7206C65.5047 40.815 65.5207 40.9155 65.5163 41.0161C65.512 41.1168 65.4875 41.2156 65.4442 41.3066C65.4008 41.3976 65.3397 41.4789 65.2642 41.5457L47.5222 58.414C47.3827 58.5468 47.1975 58.6209 47.0049 58.6208ZM75.9375 71.9908H54.6903C54.3672 71.9908 54.0793 71.7834 53.9781 71.4766L50.5232 61.0045C50.4796 60.8717 50.4739 60.7294 50.5068 60.5936C50.5396 60.4578 50.6098 60.3338 50.7093 60.2357L70.8168 40.4658C70.9588 40.3263 71.1505 40.249 71.3495 40.2508C71.5486 40.2526 71.7388 40.3334 71.8782 40.4755C72.0177 40.6175 72.095 40.8092 72.0932 41.0082C72.0913 41.2073 72.0105 41.3975 71.8685 41.5369L52.0941 60.9781L55.2334 70.4903H75.9375C76.1327 70.496 76.3181 70.5775 76.4541 70.7176C76.5902 70.8576 76.6663 71.0452 76.6663 71.2406C76.6663 71.4359 76.5902 71.6235 76.4541 71.7635C76.3181 71.9036 76.1327 71.9852 75.9375 71.9908ZM60.4434 89.4248C60.1291 89.4248 59.8355 89.2249 59.7318 88.9094L55.6709 76.6036C55.6339 76.4909 55.6241 76.371 55.6423 76.2537C55.6605 76.1365 55.7063 76.0252 55.7759 75.9291C55.8455 75.833 55.9368 75.7547 56.0425 75.7007C56.1482 75.6467 56.2651 75.6186 56.3838 75.6185H75.9375C76.1366 75.6185 76.3275 75.6976 76.4682 75.8384C76.609 75.9791 76.6881 76.17 76.6881 76.3691C76.6881 76.5682 76.609 76.7591 76.4682 76.8998C76.3275 77.0406 76.1366 77.1197 75.9375 77.1197H57.4216L61.1556 88.4398C61.1928 88.5525 61.2027 88.6723 61.1846 88.7896C61.1664 88.9069 61.1207 89.0181 61.0512 89.1143C60.9817 89.2104 60.8903 89.2887 60.7847 89.3427C60.679 89.3967 60.562 89.4248 60.4434 89.4248ZM55.0423 89.4248C54.728 89.4248 54.4345 89.2249 54.3314 88.9094L46.0274 63.7497H33.2181C32.8032 63.7497 32.4694 63.4134 32.4694 62.9991C32.4694 62.5848 32.8038 62.2485 33.2174 62.2485H46.5699C46.8955 62.2485 47.1809 62.4566 47.2827 62.7646L55.7552 88.4398C55.7924 88.5525 55.8023 88.6725 55.7841 88.7898C55.7659 88.9071 55.7202 89.0184 55.6506 89.1145C55.581 89.2107 55.4896 89.289 55.3838 89.3429C55.2781 89.3969 55.161 89.4249 55.0423 89.4248Z" fill="#121212"/>
<path fill-rule="evenodd" clip-rule="evenodd" d="M47.8655 22.1919C45.5032 22.1919 43.1961 23.4051 41.6925 25.4387C40.3152 27.3019 39.884 29.5373 40.5088 31.574C41.4046 34.4958 44.4075 40.164 46.6001 44.3035C47.0665 45.1835 47.4946 45.9919 47.8655 46.7029C48.2364 45.9932 48.6638 45.1854 49.1303 44.3053C51.3235 40.1659 54.3277 34.4958 55.2234 31.5746C55.847 29.5379 55.4158 27.3019 54.0397 25.4393C52.5361 23.4051 50.2291 22.1919 47.8655 22.1919ZM47.8655 49.0979C47.5826 49.0979 47.3211 48.937 47.1948 48.6818C46.7296 47.7502 46.0551 46.4791 45.275 45.0069C43.0541 40.814 40.0116 35.071 39.0737 32.0153C38.308 29.5172 38.8222 26.7959 40.4855 24.5461C42.2708 22.1322 45.0298 20.6914 47.8655 20.6914C50.7031 20.6914 53.4614 22.1328 55.2467 24.5461C56.9087 26.7959 57.4223 29.5172 56.6579 32.0153C55.7207 35.0729 52.6788 40.8146 50.4554 45.0088C49.6759 46.4797 49.0033 47.7502 48.5375 48.6818C48.4751 48.8066 48.3792 48.9117 48.2605 48.9852C48.1418 49.0587 48.0051 49.0977 47.8655 49.0979Z" fill="#121212"/>
<path fill-rule="evenodd" clip-rule="evenodd" d="M47.8664 27.52C47.0051 27.521 46.1793 27.8636 45.5703 28.4727C44.9613 29.0817 44.6187 29.9074 44.6177 30.7687C44.6177 32.5603 46.0748 34.0187 47.8664 34.0187C49.6579 34.0187 51.1163 32.5603 51.1163 30.7687C51.115 29.9073 50.7721 29.0816 50.1629 28.4726C49.5537 27.8636 48.7278 27.521 47.8664 27.52ZM47.8664 35.5192C45.2482 35.5192 43.1172 33.3882 43.1172 30.7687C43.1172 28.1499 45.2482 26.0195 47.8664 26.0195C50.4864 26.0195 52.6149 28.1505 52.6149 30.7687C52.6149 33.3882 50.4858 35.5192 47.8664 35.5192Z" fill="#121212"/>
<path fill-rule="evenodd" clip-rule="evenodd" d="M30.986 31.4997C30.0016 30.5027 28.6475 29.9307 27.269 29.9307C24.4037 29.9307 22.0703 32.2628 22.0703 35.1293V78.505C22.6978 77.7308 23.4902 77.1065 24.3898 76.6777C25.2894 76.2488 26.2733 76.0263 27.2699 76.0263C28.2665 76.0263 29.2504 76.2488 30.15 76.6777C31.0496 77.1065 31.842 77.7308 32.4695 78.505V35.1249C32.4858 33.7728 31.9584 32.4847 30.986 31.4997Z" fill="#90CAF9"/>
<path fill-rule="evenodd" clip-rule="evenodd" d="M65.0487 41.7529L47.5236 58.415C47.384 58.5477 47.1988 58.6215 47.0062 58.6212H33.9688V62.2489H46.5719C46.8969 62.2489 47.1829 62.457 47.2847 62.765L55.5868 87.9247H59.4088L55.673 76.604C55.6359 76.4913 55.6261 76.3715 55.6443 76.2543C55.6625 76.1371 55.7082 76.0259 55.7777 75.9297C55.8472 75.8336 55.9385 75.7553 56.0441 75.7013C56.1497 75.6473 56.2666 75.6191 56.3852 75.6189H75.1889V71.9912H54.6923C54.3686 71.9912 54.0813 71.7831 53.9795 71.477L50.5252 61.0049C50.4815 60.8722 50.4757 60.7299 50.5085 60.5941C50.5412 60.4583 50.6113 60.3343 50.7107 60.2361L69.51 41.7529H65.0487Z" fill="#ECEFF1"/>
<path fill-rule="evenodd" clip-rule="evenodd" d="M71.6505 41.7526L52.0955 60.9781L55.2348 70.4897H75.1889V41.7526H71.6505ZM46.0287 63.7497H33.9687V82.722C33.9687 82.9207 33.8898 83.1113 33.7493 83.2518C33.6088 83.3923 33.4182 83.4713 33.2194 83.4713C33.0207 83.4713 32.8301 83.3923 32.6896 83.2518C32.5491 83.1113 32.4701 82.9207 32.4701 82.722C32.467 79.8567 30.1342 77.5265 27.269 77.5265C24.4044 77.5265 22.0703 79.8586 22.0703 82.7251C22.0703 85.5916 24.4037 87.9244 27.269 87.9244H54.0077L46.0287 63.7497ZM75.1889 77.1197H57.4236L60.9879 87.9244H81.8893C84.7558 87.9244 87.088 85.5922 87.088 82.7257C87.088 79.8586 84.7558 77.5265 81.8887 77.5265C79.0235 77.5265 76.6913 79.8567 76.6901 82.722C76.6899 82.921 76.6108 83.1118 76.47 83.2525C76.3293 83.3932 76.1385 83.4723 75.9395 83.4725H75.9376C75.8392 83.4724 75.7417 83.453 75.6508 83.4152C75.5598 83.3774 75.4773 83.3221 75.4077 83.2524C75.3382 83.1827 75.2831 83.1 75.2455 83.0089C75.208 82.9179 75.1888 82.8204 75.1889 82.722V77.1197ZM43.5627 41.7526H33.9687V57.1203H46.7064L62.8712 41.752H52.1734C51.5813 42.8879 50.9954 43.993 50.4573 45.0082C49.6778 46.4791 49.0052 47.7496 48.5394 48.6812C48.4771 48.8059 48.3813 48.9107 48.2627 48.984C48.1441 49.0573 48.0075 49.0962 47.8681 49.0962C47.7287 49.0962 47.592 49.0573 47.4734 48.984C47.3548 48.9107 47.259 48.8059 47.1967 48.6812C46.7315 47.7496 46.057 46.4791 45.2769 45.0063C44.7401 43.9923 44.1542 42.8885 43.5627 41.7526Z" fill="#A5D6A7"/>
<path fill-rule="evenodd" clip-rule="evenodd" d="M47.8673 35.519C45.2492 35.519 43.1182 33.388 43.1182 30.7686C43.1182 28.1498 45.2492 26.0194 47.8673 26.0194C50.4874 26.0194 52.6159 28.1504 52.6159 30.7686C52.6159 33.388 50.4868 35.519 47.8673 35.519ZM47.8673 22.1924C45.505 22.1924 43.198 23.4056 41.6943 25.4392C40.317 27.303 39.8858 29.5378 40.5107 31.5745C41.4064 34.4963 44.4093 40.1645 46.6019 44.3039C47.0684 45.184 47.4965 45.9924 47.8673 46.7033C48.2382 45.9936 48.6657 45.1859 49.1321 44.3058C49.7274 43.1812 50.3831 41.9447 51.0393 40.6806C51.0469 40.6649 51.0551 40.6492 51.0639 40.6341C52.8177 37.2571 54.5753 33.6935 55.2253 31.5751C55.8489 29.5384 55.417 27.303 54.0416 25.4398C52.538 23.4056 50.2309 22.1924 47.8673 22.1924Z" fill="#E57373"/>
</svg>
