<svg width="259" height="69" viewBox="0 0 259 69" fill="none" xmlns="http://www.w3.org/2000/svg">
<path d="M201.381 2.50313V11.4901H195.378C194.31 11.4901 193.286 11.9139 192.531 12.6685C191.775 13.4231 191.35 14.4467 191.349 15.5145V18.4308H201.381V29.8577H191.349V63.8808H174.877V29.8577H167.625V18.4308H174.877C174.877 8.36969 177.735 0 189.327 0C199.004 0 201.381 2.50313 201.381 2.50313Z" fill="#F50714"/>
<g opacity="0.5">
<path d="M201.381 2.50313V11.4901H195.378C194.31 11.4901 193.286 11.9139 192.531 12.6685C191.775 13.4231 191.35 14.4467 191.349 15.5145V18.4308H201.381V29.8577H191.349V63.8808H174.877V29.8577H167.625V18.4308H174.877C174.877 8.36969 177.735 0 189.327 0C199.004 0 201.381 2.50313 201.381 2.50313Z" fill="#FC0516"/>
</g>
<path d="M255.177 54.996C254.005 54.996 252.163 54.3593 252.163 50.3688C252.163 46.3784 252.926 34.6745 252.479 30.1737C252.032 25.6729 244.873 17.0116 231.686 17.0116C218.5 17.0116 207.914 18.4697 204.521 31.9332H221.261C221.261 31.9332 221.747 27.8844 228.867 27.8844C235.988 27.8844 235.711 31.9332 235.711 31.9332V36.4534C235.711 36.4534 224.872 36.7353 218.408 37.6879C211.943 38.6406 203.189 42.4415 203.189 52.1429C203.189 61.8444 209.659 65.548 219.453 65.548C229.246 65.548 234.86 60.7945 235.716 59.9391C236.853 60.4251 237.237 66.0243 248.644 66.0243C257.879 66.0243 258.365 63.8857 258.365 63.8857V54.996H255.177ZM233.242 53.6837C230.714 56.2111 220.308 58.4663 220.308 51.0007C220.308 43.5351 235.584 44.5363 235.584 44.5363C235.584 44.5363 236.887 50.2911 233.242 53.6837Z" fill="#F50714"/>
<g opacity="0.5">
<path d="M255.177 54.996C254.005 54.996 252.163 54.3593 252.163 50.3688C252.163 46.3784 252.926 34.6745 252.479 30.1737C252.032 25.6729 244.873 17.0116 231.686 17.0116C218.5 17.0116 207.914 18.4697 204.521 31.9332H221.261C221.261 31.9332 221.747 27.8844 228.867 27.8844C235.988 27.8844 235.711 31.9332 235.711 31.9332V36.4534C235.711 36.4534 224.872 36.7353 218.408 37.6879C211.943 38.6406 203.189 42.4415 203.189 52.1429C203.189 61.8444 209.659 65.548 219.453 65.548C229.246 65.548 234.86 60.7945 235.716 59.9391C236.853 60.4251 237.237 66.0243 248.644 66.0243C257.879 66.0243 258.365 63.8857 258.365 63.8857V54.996H255.177ZM233.242 53.6837C230.714 56.2111 220.308 58.4663 220.308 51.0007C220.308 43.5351 235.584 44.5363 235.584 44.5363C235.584 44.5363 236.887 50.2911 233.242 53.6837Z" fill="#FC0516"/>
</g>
<path d="M34.0165 2.50313V11.4901H28.009C26.9417 11.4901 25.918 11.9141 25.1633 12.6688C24.4086 13.4236 23.9846 14.4472 23.9846 15.5145V18.4308H34.0165V29.8577H23.9846V63.8808H7.50765V29.8577H0.255859V18.4308H7.50765C7.50765 8.36969 10.3656 0 21.9675 0C31.6398 0 34.0165 2.50313 34.0165 2.50313Z" fill="#13B6A5"/>
<path d="M72.3368 18.878C70.0436 18.3251 67.6918 18.0526 65.3329 18.0663C52.1465 18.0663 40.5446 18.494 37.1423 31.9429H53.8817C53.8817 31.9429 54.3677 27.8941 61.4883 27.8941C68.6088 27.8941 68.3318 31.9429 68.3318 31.9429V36.4534C68.3318 36.4534 57.493 36.7353 51.0286 37.6879C44.5642 38.6406 35.8105 42.4414 35.8105 52.1429C35.8105 61.8443 42.2798 65.548 52.0736 65.548C61.8674 65.548 67.4812 60.7945 68.3367 59.939C69.0317 60.2307 69.4448 62.4179 72.225 64.0899M65.8724 53.6836C63.345 56.2111 52.9388 58.4663 52.9388 51.0007C52.9388 43.535 68.2151 44.5363 68.2151 44.5363C68.2151 44.5363 69.5177 50.291 65.8724 53.6836Z" fill="#13B6A5"/>
<path d="M107.76 13.2982C96.5806 13.2982 91.7882 18.0517 91.7882 18.0517V14.2023L71.2188 14.1391V66.1021H94.4031V35.5979C94.4031 34.8397 95.1127 31.8262 98.7046 31.8262C100.965 31.8262 102.039 33.3476 102.039 35.4084V66.1021H125.593V31.1069C125.593 26.7325 122.837 13.2982 107.76 13.2982ZM121.947 63.9052H104.197V36.327C104.197 33.853 104.197 29.4155 98.5539 29.4155C92.4686 29.4155 91.5014 34.062 91.5014 36.2201C91.5014 38.3781 91.2632 63.9246 91.2632 63.9246H73.649V17.3081H87.5012C89.6398 17.3081 89.5135 21.7894 89.3774 23.6267C89.3748 23.6657 89.385 23.7045 89.4064 23.7372C89.4278 23.7699 89.4594 23.7947 89.4962 23.8079C89.533 23.8211 89.5731 23.8219 89.6104 23.8103C89.6478 23.7986 89.6803 23.7751 89.703 23.7433C90.9667 21.9401 95.4821 16.8901 106.423 16.8901C121.257 16.8901 121.976 28.6183 121.976 31.4082L121.947 63.9052Z" fill="#0E0D10"/>
<path d="M165.866 13.8182V18.1002C165.866 18.1002 163.251 16.8657 156.593 16.8657C149.934 16.8657 130.516 19.5875 130.516 40.3902C130.516 61.193 144.305 64.7265 156.923 64.7265C167.32 64.7265 171.125 61.6839 171.125 61.6839V65.4896C171.125 65.4896 165.735 68.0899 156.544 68.0899C147.353 68.0899 127.255 64.8529 127.255 40.3854C127.255 15.9179 147.839 14.0126 152.106 13.4877C160.209 12.4913 165.866 13.8182 165.866 13.8182Z" fill="#0E0D10"/>
<path d="M164.962 36.1666C164.675 30.4945 160.174 28.3073 156.699 28.3073C147.858 28.3073 147.542 34.5821 147.795 40.7792C147.907 43.5836 146.716 53.2559 157.03 53.2559C167.344 53.2559 165.249 41.8679 164.962 36.1666ZM157.978 49.7758C151.936 49.7758 151.11 47.122 150.896 42.8254C150.847 37.0755 149.841 30.8298 156.928 30.8298C158.687 30.8298 162.872 31.1603 162.872 36.7741C162.872 42.388 164.019 49.7904 157.978 49.7904V49.7758Z" fill="#0E0D10"/>
</svg>
