<svg width="25" height="25" viewBox="0 0 25 25" fill="none" xmlns="http://www.w3.org/2000/svg">
<path d="M14.3543 4.28138L14.3547 4.28166L20.1145 8.31156C20.5434 8.61175 20.9636 9.1159 21.2773 9.71673C21.5909 10.3175 21.7646 10.951 21.7646 11.4771V18.2571C21.7646 20.3929 20.0304 22.1271 17.8946 22.1271H7.11463C4.98095 22.1271 3.24463 20.385 3.24463 18.2471V11.3471C3.24463 10.8605 3.40146 10.2594 3.68749 9.67843C3.97332 9.09791 4.35623 8.60245 4.7459 8.29851L4.74606 8.29839L9.754 4.38999C9.75433 4.38973 9.75467 4.38947 9.755 4.38922C11.0053 3.42129 13.0539 3.37025 14.3543 4.28138ZM12.5046 20.3771C13.3288 20.3771 14.0046 19.7014 14.0046 18.8771V15.8771C14.0046 15.0529 13.3288 14.3771 12.5046 14.3771C11.6804 14.3771 11.0046 15.0529 11.0046 15.8771V18.8771C11.0046 19.7014 11.6804 20.3771 12.5046 20.3771Z" stroke="url(#paint0_linear_106_7906)" style="" stroke-width="1.5"/>
<defs>
<linearGradient id="paint0_linear_106_7906" x1="12.5046" y1="2.87939" x2="12.5046" y2="22.8771" gradientUnits="userSpaceOnUse">
<stop stop-color="#3EB1E0" style="stop-color:#3EB1E0;stop-color:color(display-p3 0.2431 0.6941 0.8784);stop-opacity:1;"/>
<stop offset="1" stop-color="#0E77CC" style="stop-color:#0E77CC;stop-color:color(display-p3 0.0549 0.4667 0.8000);stop-opacity:1;"/>
</linearGradient>
</defs>
</svg>
