<svg width="12" height="13" viewBox="0 0 12 13" fill="none" xmlns="http://www.w3.org/2000/svg">
<path d="M9.71233 9.1303L6 12.8426L2.28769 9.1303C0.237437 7.08 0.237437 3.75591 2.28769 1.70566C4.33794 -0.344595 7.66203 -0.344595 9.71233 1.70566C11.7626 3.75591 11.7626 7.08 9.71233 9.1303ZM6 7.7513C7.28864 7.7513 8.33333 6.70661 8.33333 5.41797C8.33333 4.1293 7.28864 3.08464 6 3.08464C4.71133 3.08464 3.66667 4.1293 3.66667 5.41797C3.66667 6.70661 4.71133 7.7513 6 7.7513ZM6 6.58464C5.35565 6.58464 4.83333 6.06232 4.83333 5.41797C4.83333 4.77364 5.35565 4.2513 6 4.2513C6.64435 4.2513 7.16667 4.77364 7.16667 5.41797C7.16667 6.06232 6.64435 6.58464 6 6.58464Z" fill="#333333"/>
</svg>
