<svg width="23" height="23" viewBox="0 0 23 23" fill="none" xmlns="http://www.w3.org/2000/svg">
<path d="M8.34359 17.4281H7.88525C4.21859 17.4281 2.38525 16.5114 2.38525 11.9281V7.34473C2.38525 3.67806 4.21859 1.84473 7.88525 1.84473H15.2186C18.8853 1.84473 20.7186 3.67806 20.7186 7.34473V11.9281C20.7186 15.5947 18.8853 17.4281 15.2186 17.4281H14.7603C14.4761 17.4281 14.2011 17.5656 14.0269 17.7947L12.6519 19.6281C12.0469 20.4347 11.0569 20.4347 10.4519 19.6281L9.07692 17.7947C8.93025 17.5931 8.59109 17.4281 8.34359 17.4281Z" stroke="#333333" stroke-width="1.5" stroke-miterlimit="10" stroke-linecap="round" stroke-linejoin="round"/>
<path d="M6.96826 7.34473H16.1349" stroke="#333333" stroke-width="1.5" stroke-linecap="round" stroke-linejoin="round"/>
<path d="M6.96826 11.9287H12.4683" stroke="#333333" stroke-width="1.5" stroke-linecap="round" stroke-linejoin="round"/>
</svg>
