<svg width="21" height="21" viewBox="0 0 21 21" fill="none" xmlns="http://www.w3.org/2000/svg">
<path d="M10.8403 5.37793V8.15293" stroke="#333333" stroke-width="1.5" stroke-miterlimit="10" stroke-linecap="round"/>
<path d="M10.8569 1.67871C7.79025 1.67871 5.30691 4.16204 5.30691 7.22871V8.97871C5.30691 9.54538 5.07358 10.3954 4.78191 10.8787L3.72358 12.6454C3.07358 13.737 3.52358 14.9537 4.72358 15.3537C8.70691 16.6787 13.0152 16.6787 16.9986 15.3537C18.1236 14.9787 18.6069 13.662 17.9986 12.6454L16.9402 10.8787C16.6486 10.3954 16.4152 9.53704 16.4152 8.97871V7.22871C16.4069 4.17871 13.9069 1.67871 10.8569 1.67871Z" stroke="#333333" stroke-width="1.5" stroke-miterlimit="10" stroke-linecap="round"/>
<path d="M13.6154 15.6953C13.6154 17.2203 12.3654 18.4703 10.8404 18.4703C10.0821 18.4703 9.3821 18.1536 8.8821 17.6536C8.3821 17.1536 8.06543 16.4536 8.06543 15.6953" stroke="#333333" stroke-width="1.5" stroke-miterlimit="10"/>
</svg>
