<svg width="13" height="14" viewBox="0 0 13 14" fill="none" xmlns="http://www.w3.org/2000/svg">
<path d="M6.88595 13.0766C3.52979 13.0766 0.809082 10.3558 0.809082 6.99972C0.809082 3.64356 3.52979 0.922852 6.88595 0.922852C10.2421 0.922852 12.9628 3.64356 12.9628 6.99972C12.9628 10.3558 10.2421 13.0766 6.88595 13.0766ZM6.88595 11.8612C9.57089 11.8612 11.7474 9.68466 11.7474 6.99972C11.7474 4.31479 9.57089 2.13822 6.88595 2.13822C4.20102 2.13822 2.02446 4.31479 2.02446 6.99972C2.02446 9.68466 4.20102 11.8612 6.88595 11.8612ZM7.49364 6.99972H9.92438V8.21509H6.27826V3.96128H7.49364V6.99972Z" fill="#425466"/>
</svg>
